<svg xmlns="http://www.w3.org/2000/svg" viewBox="0 0 320 320"><rect width="320" height="320" rx="72" fill="#fff"/><ellipse cx="160" cy="288" rx="78" ry="10" fill="#f1e7d7"/><path d="M160 88c-26 0-38 26-38 48 0 16-34 30-34 78 0 44 34 74 72 74s72-30 72-74c0-48-34-62-34-78 0-22-12-48-38-48Z" fill="#c9dc5a"/><path d="M162 84c-2-24 12-40 30-48" fill="none" stroke="#71492f" stroke-width="13" stroke-linecap="round"/><path d="M186 52c26-14 50-2 54 20-24 10-46 4-54-20Z" fill="#27a99b"/><ellipse cx="126" cy="184" rx="13" ry="26" fill="#fff" opacity=".35"/><circle cx="132" cy="206" r="10" fill="#5c6b1e"/><circle cx="188" cy="206" r="10" fill="#5c6b1e"/><circle cx="136" cy="202" r="3.5" fill="#fff"/><circle cx="192" cy="202" r="3.5" fill="#fff"/><path d="M144 228c8 12 24 12 32 0" stroke="#5c6b1e" stroke-width="6" fill="none" stroke-linecap="round"/><ellipse cx="112" cy="226" rx="16" ry="10" fill="#f08a8a" opacity=".4"/><ellipse cx="208" cy="226" rx="16" ry="10" fill="#f08a8a" opacity=".4"/></svg>